<svg xmlns="http://www.w3.org/2000/svg" viewBox="0 0 32 32">
  <defs>
    <linearGradient id="g" x1="0" y1="0" x2="1" y2="1">
      <stop offset="0" stop-color="#2563eb" />
      <stop offset="1" stop-color="#7c3aed" />
    </linearGradient>
  </defs>
  <rect width="32" height="32" rx="8" fill="url(#g)" />
  <path
    d="M16 8a4 4 0 0 1 4 4v2h1a2 2 0 0 1 2 2v6a2 2 0 0 1-2 2h-10a2 2 0 0 1-2-2v-6a2 2 0 0 1 2-2h1v-2a4 4 0 0 1 4-4zm0 2a2 2 0 0 0-2 2v2h4v-2a2 2 0 0 0-2-2z"
    fill="#fff"
  />
</svg>
